<svg xmlns="http://www.w3.org/2000/svg" xmlns:xlink="http://www.w3.org/1999/xlink" width="40" zoomAndPan="magnify" viewBox="0 0 30 30.000001" height="40" preserveAspectRatio="xMidYMid meet" version="1.0"><defs><clipPath id="217493a892"><path d="M 3.070312 0 L 27 0 L 27 29 L 3.070312 29 Z M 3.070312 0 " clip-rule="nonzero"/></clipPath></defs><g clip-path="url(#217493a892)"><path fill="#000000" d="M 25.035156 18.222656 C 24.757812 18.511719 24.460938 18.789062 24.152344 19.046875 C 22.074219 20.804688 19.433594 21.773438 16.714844 21.773438 C 10.367188 21.773438 5.203125 16.632812 5.203125 10.3125 C 5.203125 7.605469 6.175781 4.972656 7.945312 2.902344 C 8.199219 2.601562 8.476562 2.308594 8.769531 2.03125 C 9.175781 1.640625 9.210938 1 8.84375 0.574219 C 8.65625 0.351562 8.375 0.214844 8.082031 0.199219 C 7.789062 0.183594 7.496094 0.289062 7.285156 0.492188 C 6.941406 0.820312 6.613281 1.167969 6.3125 1.523438 C 4.21875 3.976562 3.0625 7.097656 3.0625 10.3125 C 3.0625 17.101562 8.085938 22.742188 14.625 23.746094 L 14.625 24.898438 L 13.332031 24.898438 C 13.257812 24.898438 13.1875 24.921875 13.128906 24.96875 L 10.871094 26.773438 C 10.796875 26.832031 10.75 26.925781 10.75 27.023438 L 10.75 28.632812 C 10.75 28.808594 10.894531 28.953125 11.074219 28.953125 L 22.355469 28.953125 C 22.535156 28.953125 22.679688 28.808594 22.679688 28.632812 L 22.679688 27.023438 C 22.679688 26.925781 22.632812 26.832031 22.558594 26.773438 L 20.300781 24.96875 C 20.242188 24.921875 20.171875 24.898438 20.097656 24.898438 L 18.804688 24.898438 L 18.804688 23.738281 C 21.273438 23.355469 23.609375 22.300781 25.539062 20.671875 C 25.902344 20.367188 26.253906 20.039062 26.578125 19.703125 C 26.78125 19.492188 26.890625 19.203125 26.875 18.910156 C 26.859375 18.617188 26.722656 18.339844 26.496094 18.148438 C 26.066406 17.785156 25.425781 17.820312 25.035156 18.222656 Z M 11.394531 28.3125 L 11.394531 27.34375 L 22.035156 27.34375 L 22.035156 28.3125 Z M 21.4375 26.703125 L 11.988281 26.703125 L 13.445312 25.539062 L 19.984375 25.539062 Z M 18.160156 24.898438 L 15.269531 24.898438 L 15.269531 23.828125 C 15.746094 23.878906 16.226562 23.90625 16.714844 23.90625 C 17.199219 23.90625 17.679688 23.875 18.160156 23.824219 Z M 26.113281 19.257812 C 25.800781 19.578125 25.46875 19.890625 25.121094 20.183594 C 22.773438 22.167969 19.785156 23.261719 16.714844 23.261719 C 9.542969 23.261719 3.707031 17.453125 3.707031 10.3125 C 3.707031 7.25 4.808594 4.277344 6.804688 1.9375 C 7.09375 1.597656 7.402344 1.269531 7.730469 0.957031 C 7.8125 0.878906 7.914062 0.839844 8.027344 0.839844 C 8.035156 0.839844 8.042969 0.839844 8.050781 0.839844 C 8.167969 0.84375 8.277344 0.898438 8.355469 0.988281 C 8.5 1.160156 8.484375 1.414062 8.324219 1.566406 C 8.015625 1.859375 7.722656 2.171875 7.457031 2.488281 C 5.589844 4.671875 4.558594 7.449219 4.558594 10.3125 C 4.558594 16.984375 10.011719 22.414062 16.714844 22.414062 C 19.585938 22.414062 22.375 21.390625 24.570312 19.539062 C 24.894531 19.261719 25.207031 18.96875 25.5 18.667969 C 25.65625 18.507812 25.910156 18.496094 26.078125 18.636719 C 26.171875 18.714844 26.226562 18.824219 26.230469 18.941406 C 26.238281 19.0625 26.195312 19.171875 26.113281 19.257812 Z M 26.113281 19.257812 " fill-opacity="1" fill-rule="nonzero"/></g><path fill="#000000" d="M 16.714844 20.550781 C 22.386719 20.550781 27 15.957031 27 10.3125 C 27 4.667969 22.386719 0.0742188 16.714844 0.0742188 C 11.042969 0.0742188 6.429688 4.667969 6.429688 10.3125 C 6.429688 15.957031 11.042969 20.550781 16.714844 20.550781 Z M 13.949219 19.507812 L 14.34375 18.710938 C 14.488281 18.421875 14.429688 18.078125 14.199219 17.855469 L 13.003906 16.691406 C 12.988281 16.675781 12.980469 16.65625 12.976562 16.636719 L 12.652344 14.953125 C 12.648438 14.914062 12.664062 14.886719 12.675781 14.871094 C 12.683594 14.859375 12.710938 14.835938 12.75 14.835938 L 14.433594 14.835938 C 14.449219 14.835938 14.460938 14.839844 14.472656 14.84375 L 16.441406 15.625 C 16.464844 15.632812 16.480469 15.648438 16.492188 15.671875 L 17.65625 18.148438 C 17.714844 18.273438 17.808594 18.378906 17.929688 18.457031 L 19.542969 19.488281 C 18.648438 19.761719 17.699219 19.910156 16.714844 19.910156 C 15.753906 19.910156 14.824219 19.769531 13.949219 19.507812 Z M 26.351562 10.3125 C 26.351562 11.414062 26.164062 12.46875 25.820312 13.453125 L 25.464844 13.308594 C 25.449219 13.300781 25.433594 13.292969 25.421875 13.277344 L 25.023438 12.75 C 25.015625 12.734375 25.007812 12.71875 25.003906 12.703125 L 24.554688 9.878906 C 24.515625 9.636719 24.359375 9.429688 24.136719 9.324219 L 22.585938 8.605469 C 22.574219 8.597656 22.5625 8.589844 22.554688 8.582031 L 21.6875 7.601562 C 21.664062 7.574219 21.65625 7.535156 21.667969 7.5 L 22.269531 5.921875 C 22.324219 5.777344 22.332031 5.621094 22.292969 5.472656 L 21.964844 4.210938 C 21.957031 4.179688 21.964844 4.148438 21.980469 4.125 L 22.878906 2.941406 C 25 4.703125 26.351562 7.351562 26.351562 10.3125 Z M 17.898438 0.789062 L 17.039062 1.226562 C 16.800781 1.351562 16.644531 1.589844 16.632812 1.855469 L 16.582031 2.964844 L 15.855469 5.355469 C 15.847656 5.382812 15.828125 5.402344 15.804688 5.414062 L 14.175781 6.1875 C 13.96875 6.285156 13.824219 6.472656 13.773438 6.695312 L 13.304688 8.78125 C 13.265625 8.957031 13.292969 9.140625 13.378906 9.296875 L 14.226562 10.835938 C 14.335938 11.035156 14.523438 11.171875 14.746094 11.210938 L 16.050781 11.441406 C 16.074219 11.445312 16.09375 11.457031 16.109375 11.476562 L 17.078125 12.632812 C 17.09375 12.652344 17.101562 12.679688 17.097656 12.703125 L 17.046875 13.140625 C 17.039062 13.1875 17.011719 13.207031 16.992188 13.214844 C 16.976562 13.226562 16.941406 13.238281 16.902344 13.214844 L 15.921875 12.671875 C 15.910156 12.667969 15.902344 12.660156 15.894531 12.652344 L 15.34375 11.992188 C 15.199219 11.828125 14.992188 11.730469 14.773438 11.730469 L 13.484375 11.730469 C 13.457031 11.730469 13.433594 11.71875 13.414062 11.699219 L 12.226562 10.472656 L 11.753906 9.710938 C 11.617188 9.492188 11.382812 9.359375 11.121094 9.359375 C 11.070312 9.359375 11.027344 9.320312 11.023438 9.273438 L 10.871094 7.492188 C 10.871094 7.480469 10.871094 7.46875 10.875 7.457031 L 11.59375 4.726562 C 11.671875 4.425781 11.554688 4.105469 11.296875 3.929688 L 10.246094 3.207031 C 11.957031 1.660156 14.226562 0.714844 16.714844 0.714844 C 17.117188 0.714844 17.511719 0.742188 17.898438 0.789062 Z M 9.773438 3.664062 L 10.929688 4.457031 C 10.964844 4.480469 10.980469 4.523438 10.96875 4.5625 L 10.25 7.296875 C 10.226562 7.378906 10.222656 7.460938 10.226562 7.546875 L 10.382812 9.328125 C 10.414062 9.710938 10.734375 10.003906 11.121094 10.003906 C 11.15625 10.003906 11.1875 10.019531 11.207031 10.050781 L 11.679688 10.8125 C 11.707031 10.855469 11.738281 10.898438 11.777344 10.9375 L 12.949219 12.144531 C 13.089844 12.289062 13.28125 12.371094 13.484375 12.371094 L 14.773438 12.371094 C 14.800781 12.371094 14.828125 12.382812 14.847656 12.40625 L 15.398438 13.0625 C 15.457031 13.132812 15.527344 13.191406 15.609375 13.234375 L 16.585938 13.777344 C 16.699219 13.835938 16.824219 13.871094 16.949219 13.871094 C 17.0625 13.871094 17.179688 13.84375 17.285156 13.789062 C 17.507812 13.675781 17.65625 13.460938 17.6875 13.21875 L 17.738281 12.78125 C 17.761719 12.578125 17.699219 12.375 17.570312 12.21875 L 16.605469 11.0625 C 16.492188 10.929688 16.335938 10.839844 16.164062 10.808594 L 14.859375 10.578125 C 14.828125 10.574219 14.804688 10.554688 14.789062 10.527344 L 13.941406 8.988281 C 13.929688 8.96875 13.929688 8.945312 13.933594 8.921875 L 14.402344 6.835938 C 14.410156 6.804688 14.429688 6.78125 14.457031 6.765625 L 16.082031 5.992188 C 16.269531 5.902344 16.414062 5.738281 16.472656 5.542969 L 17.199219 3.152344 C 17.21875 3.09375 17.230469 3.027344 17.230469 2.96875 L 17.277344 1.882812 C 17.28125 1.847656 17.300781 1.816406 17.332031 1.800781 L 18.929688 0.984375 C 18.933594 0.984375 18.9375 0.980469 18.941406 0.976562 C 20.195312 1.273438 21.355469 1.816406 22.367188 2.546875 L 21.464844 3.742188 C 21.328125 3.921875 21.285156 4.152344 21.339844 4.371094 L 21.671875 5.636719 C 21.675781 5.65625 21.675781 5.675781 21.667969 5.695312 L 21.066406 7.273438 C 20.96875 7.53125 21.019531 7.820312 21.203125 8.027344 L 22.070312 9.003906 C 22.136719 9.082031 22.21875 9.144531 22.3125 9.1875 L 23.863281 9.910156 C 23.890625 9.921875 23.914062 9.949219 23.917969 9.980469 L 24.367188 12.804688 C 24.386719 12.925781 24.4375 13.039062 24.507812 13.132812 L 24.90625 13.664062 C 24.988281 13.769531 25.097656 13.855469 25.222656 13.90625 L 25.589844 14.054688 C 24.589844 16.402344 22.675781 18.269531 20.296875 19.222656 C 20.273438 19.203125 20.253906 19.179688 20.230469 19.164062 L 18.277344 17.917969 C 18.261719 17.90625 18.25 17.894531 18.242188 17.875 L 17.078125 15.402344 C 16.996094 15.230469 16.855469 15.097656 16.679688 15.027344 L 14.710938 14.25 C 14.621094 14.214844 14.53125 14.195312 14.4375 14.195312 L 12.75 14.195312 C 12.527344 14.195312 12.320312 14.292969 12.179688 14.464844 C 12.035156 14.636719 11.980469 14.855469 12.019531 15.074219 L 12.34375 16.757812 C 12.371094 16.90625 12.445312 17.042969 12.554688 17.148438 L 13.746094 18.316406 C 13.777344 18.34375 13.785156 18.390625 13.765625 18.425781 L 13.332031 19.300781 C 9.683594 17.933594 7.074219 14.421875 7.074219 10.3125 C 7.074219 7.734375 8.105469 5.390625 9.773438 3.664062 Z M 9.773438 3.664062 " fill-opacity="1" fill-rule="nonzero"/></svg>