<svg xmlns="http://www.w3.org/2000/svg" xmlns:xlink="http://www.w3.org/1999/xlink" width="40" zoomAndPan="magnify" viewBox="0 0 30 30.000001" height="40" preserveAspectRatio="xMidYMid meet" version="1.0"><defs><clipPath id="2b8d975aa0"><path d="M 3.070312 0 L 27 0 L 27 29 L 3.070312 29 Z M 3.070312 0 " clip-rule="nonzero"/></clipPath></defs><g clip-path="url(#2b8d975aa0)"><path fill="#ffffff" d="M 24.941406 18.222656 C 24.664062 18.511719 24.371094 18.789062 24.0625 19.046875 C 21.992188 20.804688 19.363281 21.773438 16.65625 21.773438 C 10.335938 21.773438 5.195312 16.632812 5.195312 10.3125 C 5.195312 7.605469 6.164062 4.972656 7.925781 2.902344 C 8.179688 2.601562 8.453125 2.308594 8.746094 2.03125 C 9.152344 1.640625 9.183594 1 8.820312 0.574219 C 8.632812 0.351562 8.355469 0.214844 8.0625 0.199219 C 7.769531 0.183594 7.480469 0.289062 7.269531 0.492188 C 6.925781 0.820312 6.597656 1.167969 6.300781 1.523438 C 4.210938 3.976562 3.0625 7.097656 3.0625 10.3125 C 3.0625 17.101562 8.066406 22.742188 14.578125 23.746094 L 14.578125 24.898438 L 13.289062 24.898438 C 13.214844 24.898438 13.144531 24.921875 13.085938 24.96875 L 10.839844 26.773438 C 10.761719 26.832031 10.71875 26.925781 10.71875 27.023438 L 10.71875 28.632812 C 10.71875 28.808594 10.863281 28.953125 11.039062 28.953125 L 22.273438 28.953125 C 22.453125 28.953125 22.59375 28.808594 22.59375 28.632812 L 22.59375 27.023438 C 22.59375 26.925781 22.550781 26.832031 22.476562 26.773438 L 20.226562 24.96875 C 20.171875 24.921875 20.097656 24.898438 20.027344 24.898438 L 18.738281 24.898438 L 18.738281 23.738281 C 21.195312 23.355469 23.523438 22.300781 25.445312 20.671875 C 25.804688 20.367188 26.152344 20.039062 26.476562 19.703125 C 26.679688 19.492188 26.789062 19.203125 26.773438 18.910156 C 26.757812 18.617188 26.621094 18.339844 26.398438 18.148438 C 25.96875 17.785156 25.328125 17.820312 24.941406 18.222656 Z M 11.359375 28.3125 L 11.359375 27.34375 L 21.953125 27.34375 L 21.953125 28.3125 Z M 21.359375 26.703125 L 11.953125 26.703125 L 13.398438 25.539062 L 19.914062 25.539062 Z M 18.09375 24.898438 L 15.21875 24.898438 L 15.21875 23.828125 C 15.691406 23.878906 16.171875 23.90625 16.65625 23.90625 C 17.136719 23.90625 17.617188 23.875 18.09375 23.824219 Z M 26.015625 19.257812 C 25.703125 19.578125 25.375 19.890625 25.027344 20.183594 C 22.6875 22.167969 19.714844 23.261719 16.65625 23.261719 C 9.515625 23.261719 3.703125 17.453125 3.703125 10.3125 C 3.703125 7.25 4.800781 4.277344 6.789062 1.9375 C 7.074219 1.597656 7.386719 1.269531 7.710938 0.957031 C 7.792969 0.878906 7.894531 0.839844 8.003906 0.839844 C 8.011719 0.839844 8.019531 0.839844 8.027344 0.839844 C 8.148438 0.84375 8.253906 0.898438 8.332031 0.988281 C 8.476562 1.160156 8.460938 1.414062 8.300781 1.566406 C 7.996094 1.859375 7.703125 2.171875 7.4375 2.488281 C 5.578125 4.671875 4.554688 7.449219 4.554688 10.3125 C 4.554688 16.984375 9.984375 22.414062 16.65625 22.414062 C 19.515625 22.414062 22.292969 21.390625 24.480469 19.539062 C 24.804688 19.261719 25.113281 18.96875 25.40625 18.667969 C 25.558594 18.507812 25.8125 18.496094 25.980469 18.636719 C 26.074219 18.714844 26.125 18.824219 26.132812 18.941406 C 26.136719 19.0625 26.097656 19.171875 26.015625 19.257812 Z M 26.015625 19.257812 " fill-opacity="1" fill-rule="nonzero"/></g><path fill="#ffffff" d="M 16.65625 20.550781 C 22.304688 20.550781 26.894531 15.957031 26.894531 10.3125 C 26.894531 4.667969 22.300781 0.0742188 16.65625 0.0742188 C 11.011719 0.0742188 6.417969 4.667969 6.417969 10.3125 C 6.417969 15.957031 11.011719 20.550781 16.65625 20.550781 Z M 13.902344 19.507812 L 14.296875 18.710938 C 14.4375 18.421875 14.378906 18.078125 14.152344 17.855469 L 12.960938 16.691406 C 12.949219 16.675781 12.9375 16.65625 12.933594 16.636719 L 12.613281 14.953125 C 12.605469 14.914062 12.621094 14.886719 12.632812 14.871094 C 12.644531 14.859375 12.667969 14.835938 12.707031 14.835938 L 14.386719 14.835938 C 14.398438 14.835938 14.410156 14.839844 14.421875 14.84375 L 16.382812 15.625 C 16.40625 15.632812 16.425781 15.648438 16.4375 15.671875 L 17.59375 18.148438 C 17.652344 18.273438 17.746094 18.378906 17.863281 18.457031 L 19.472656 19.488281 C 18.582031 19.761719 17.636719 19.910156 16.65625 19.910156 C 15.699219 19.910156 14.777344 19.769531 13.902344 19.507812 Z M 26.253906 10.3125 C 26.253906 11.414062 26.066406 12.46875 25.722656 13.453125 L 25.367188 13.308594 C 25.351562 13.300781 25.339844 13.292969 25.328125 13.277344 L 24.929688 12.75 C 24.921875 12.734375 24.914062 12.71875 24.910156 12.703125 L 24.464844 9.878906 C 24.425781 9.636719 24.269531 9.429688 24.046875 9.324219 L 22.503906 8.605469 C 22.492188 8.597656 22.480469 8.589844 22.472656 8.582031 L 21.609375 7.601562 C 21.582031 7.574219 21.578125 7.535156 21.589844 7.5 L 22.1875 5.921875 C 22.242188 5.777344 22.25 5.621094 22.210938 5.472656 L 21.882812 4.210938 C 21.878906 4.179688 21.882812 4.148438 21.902344 4.125 L 22.792969 2.941406 C 24.90625 4.703125 26.253906 7.351562 26.253906 10.3125 Z M 17.835938 0.789062 L 16.976562 1.226562 C 16.742188 1.351562 16.585938 1.589844 16.578125 1.855469 L 16.527344 2.964844 L 15.800781 5.355469 C 15.792969 5.382812 15.773438 5.402344 15.75 5.414062 L 14.128906 6.1875 C 13.921875 6.285156 13.777344 6.472656 13.726562 6.695312 L 13.261719 8.78125 C 13.222656 8.957031 13.246094 9.140625 13.335938 9.296875 L 14.179688 10.835938 C 14.285156 11.035156 14.476562 11.171875 14.695312 11.210938 L 15.996094 11.441406 C 16.019531 11.445312 16.039062 11.457031 16.054688 11.476562 L 17.015625 12.632812 C 17.035156 12.652344 17.042969 12.679688 17.039062 12.703125 L 16.984375 13.140625 C 16.980469 13.1875 16.953125 13.207031 16.933594 13.214844 C 16.917969 13.226562 16.882812 13.238281 16.84375 13.214844 L 15.867188 12.671875 C 15.855469 12.667969 15.847656 12.660156 15.839844 12.652344 L 15.289062 11.992188 C 15.148438 11.828125 14.941406 11.730469 14.722656 11.730469 L 13.4375 11.730469 C 13.414062 11.730469 13.386719 11.71875 13.371094 11.699219 L 12.1875 10.472656 L 11.71875 9.710938 C 11.582031 9.492188 11.347656 9.359375 11.085938 9.359375 C 11.039062 9.359375 10.996094 9.320312 10.992188 9.273438 L 10.835938 7.492188 C 10.835938 7.480469 10.835938 7.46875 10.839844 7.457031 L 11.558594 4.726562 C 11.636719 4.425781 11.515625 4.105469 11.261719 3.929688 L 10.214844 3.207031 C 11.917969 1.660156 14.179688 0.714844 16.65625 0.714844 C 17.054688 0.714844 17.449219 0.742188 17.835938 0.789062 Z M 9.746094 3.664062 L 10.898438 4.457031 C 10.929688 4.480469 10.945312 4.523438 10.9375 4.5625 L 10.21875 7.296875 C 10.199219 7.378906 10.191406 7.460938 10.199219 7.546875 L 10.351562 9.328125 C 10.382812 9.710938 10.699219 10.003906 11.085938 10.003906 C 11.121094 10.003906 11.152344 10.019531 11.171875 10.050781 L 11.640625 10.8125 C 11.667969 10.855469 11.703125 10.898438 11.738281 10.9375 L 12.90625 12.144531 C 13.046875 12.289062 13.238281 12.371094 13.4375 12.371094 L 14.722656 12.371094 C 14.75 12.371094 14.777344 12.382812 14.796875 12.40625 L 15.347656 13.0625 C 15.40625 13.132812 15.472656 13.191406 15.554688 13.234375 L 16.53125 13.777344 C 16.640625 13.835938 16.765625 13.871094 16.890625 13.871094 C 17.003906 13.871094 17.121094 13.84375 17.226562 13.789062 C 17.445312 13.675781 17.59375 13.460938 17.625 13.21875 L 17.675781 12.78125 C 17.699219 12.578125 17.636719 12.375 17.507812 12.21875 L 16.546875 11.0625 C 16.433594 10.929688 16.277344 10.839844 16.109375 10.808594 L 14.808594 10.578125 C 14.78125 10.574219 14.753906 10.554688 14.742188 10.527344 L 13.898438 8.988281 C 13.886719 8.96875 13.882812 8.945312 13.886719 8.921875 L 14.351562 6.835938 C 14.359375 6.804688 14.378906 6.78125 14.40625 6.765625 L 16.027344 5.992188 C 16.214844 5.902344 16.355469 5.738281 16.414062 5.542969 L 17.140625 3.152344 C 17.160156 3.09375 17.167969 3.027344 17.171875 2.96875 L 17.21875 1.882812 C 17.21875 1.847656 17.238281 1.816406 17.269531 1.800781 L 18.863281 0.984375 C 18.867188 0.984375 18.871094 0.980469 18.875 0.976562 C 20.121094 1.273438 21.277344 1.816406 22.285156 2.546875 L 21.386719 3.742188 C 21.253906 3.921875 21.207031 4.152344 21.265625 4.371094 L 21.589844 5.636719 C 21.597656 5.65625 21.59375 5.675781 21.589844 5.695312 L 20.988281 7.273438 C 20.890625 7.53125 20.945312 7.820312 21.125 8.027344 L 21.988281 9.003906 C 22.058594 9.082031 22.140625 9.144531 22.230469 9.1875 L 23.773438 9.910156 C 23.804688 9.921875 23.824219 9.949219 23.828125 9.980469 L 24.277344 12.804688 C 24.296875 12.925781 24.34375 13.039062 24.417969 13.132812 L 24.8125 13.664062 C 24.894531 13.769531 25.003906 13.855469 25.128906 13.90625 L 25.496094 14.054688 C 24.5 16.402344 22.59375 18.269531 20.222656 19.222656 C 20.199219 19.203125 20.183594 19.179688 20.15625 19.164062 L 18.210938 17.917969 C 18.195312 17.90625 18.183594 17.894531 18.175781 17.875 L 17.015625 15.402344 C 16.9375 15.230469 16.796875 15.097656 16.621094 15.027344 L 14.660156 14.25 C 14.574219 14.214844 14.480469 14.195312 14.386719 14.195312 L 12.710938 14.195312 C 12.488281 14.195312 12.28125 14.292969 12.140625 14.464844 C 12 14.636719 11.941406 14.855469 11.980469 15.074219 L 12.304688 16.757812 C 12.332031 16.90625 12.40625 17.042969 12.511719 17.148438 L 13.703125 18.316406 C 13.730469 18.34375 13.738281 18.390625 13.722656 18.425781 L 13.289062 19.300781 C 9.652344 17.933594 7.058594 14.421875 7.058594 10.3125 C 7.058594 7.734375 8.082031 5.390625 9.746094 3.664062 Z M 9.746094 3.664062 " fill-opacity="1" fill-rule="nonzero"/></svg>